<svg width="21" height="21" viewBox="0 0 21 21" fill="none" xmlns="http://www.w3.org/2000/svg">
<path d="M11.3866 3.29585C11.0736 2.98289 10.6488 2.80679 10.2065 2.80679H4.22103C3.29968 2.80679 2.55191 3.55456 2.55191 4.47592V10.4614C2.55191 10.9037 2.728 11.3285 3.04096 11.6415L9.71745 18.3179C10.3692 18.9697 11.4258 18.9697 12.0776 18.3179L18.0631 12.3325C18.7149 11.6807 18.7149 10.6241 18.0631 9.97234L11.3866 3.29585ZM6.72472 8.64872C5.80336 8.64872 5.05559 7.90095 5.05559 6.9796C5.05559 6.05824 5.80336 5.31048 6.72472 5.31048C7.64607 5.31048 8.39384 6.05824 8.39384 6.9796C8.39384 7.90095 7.64607 8.64872 6.72472 8.64872Z" fill="#667085"/>
</svg>
