<svg width="21" height="21" viewBox="0 0 21 21" fill="none" xmlns="http://www.w3.org/2000/svg">
<path d="M3.18503 12.4021H4.78504V18.0062C4.78504 18.4489 5.14344 18.8068 5.58504 18.8068H15.1851C15.6275 18.8068 15.9851 18.4489 15.9851 18.0062V12.4021H17.5851C17.9011 12.4021 18.1875 12.2164 18.3155 11.9274C18.4443 11.6384 18.3915 11.3006 18.1795 11.066L10.9795 3.06018C10.6763 2.72233 10.0939 2.72233 9.79067 3.06018L2.59063 11.066C2.37942 11.3006 2.32582 11.6384 2.45383 11.9274C2.58263 12.2164 2.86903 12.4021 3.18503 12.4021ZM7.94426 12.1492C7.96906 12.2252 8.59466 14.0033 10.3851 14.0033C12.2003 14.0033 12.8187 12.1724 12.8251 12.1532L14.3451 12.6503C14.3059 12.7712 13.3475 15.6045 10.3851 15.6045C7.42266 15.6045 6.46425 12.7712 6.42505 12.6511L7.94426 12.1492Z" fill="#667085"/>
</svg>
