<svg width="21" height="21" viewBox="0 0 21 21" fill="none" xmlns="http://www.w3.org/2000/svg">
<path d="M2.41217 12.9439C2.46664 13.1489 2.60041 13.3244 2.78465 13.4301L4.31458 14.3143V16.0756C4.31458 16.5185 4.67263 16.8765 5.1156 16.8765H6.87702L7.76134 18.4063C7.86788 18.5897 8.0433 18.7235 8.24836 18.7796C8.31645 18.7972 8.38533 18.8068 8.45502 18.8068C8.5944 18.8068 8.73297 18.7699 8.85633 18.6987L10.3847 17.8152L11.9146 18.6995C12.098 18.806 12.3175 18.834 12.5226 18.7796C12.7276 18.7251 12.9031 18.5913 13.0088 18.4071L13.8923 16.8773H15.6537C16.0967 16.8773 16.4547 16.5193 16.4547 16.0764V14.3151L17.9847 13.4309C18.3676 13.209 18.4989 12.7188 18.2771 12.336L17.3935 10.807L18.2779 9.2788C18.4989 8.89515 18.3676 8.40577 17.9855 8.18471L16.4555 7.30047V5.5384C16.4555 5.09548 16.0975 4.73746 15.6545 4.73746H13.8931L13.0096 3.20847C12.9031 3.02505 12.7276 2.89049 12.5234 2.83523C12.3183 2.77916 12.0996 2.8088 11.9154 2.91532L10.3847 3.79876L8.85553 2.91452C8.47184 2.69266 7.98242 2.82482 7.76134 3.20686L6.87702 4.73666H5.1156C4.67263 4.73666 4.31458 5.09468 4.31458 5.5376V7.29887L2.78465 8.18311C2.60041 8.29044 2.46664 8.46584 2.41217 8.67088C2.3577 8.87673 2.38654 9.09458 2.49228 9.2788L3.37659 10.807L2.49228 12.3352C2.38654 12.5202 2.3577 12.7381 2.41217 12.9439ZM10.3847 11.6079C7.59714 11.6079 7.18061 10.103 7.18061 9.20511C7.18061 8.1743 8.00485 7.13628 9.58365 6.87037V6.01096H11.1857V6.8992C12.5746 7.22759 13.1081 8.38335 13.1081 9.20511H12.3071L11.5061 9.21953C11.4949 8.91517 11.3339 8.40417 10.3847 8.40417C9.34415 8.40417 8.78264 8.81666 8.78264 9.20511C8.78264 9.50466 8.78264 10.0061 10.3847 10.0061C13.1722 10.0061 13.5887 11.511 13.5887 12.4089C13.5887 13.4397 12.7645 14.4777 11.1857 14.7436V15.6126H9.58365V14.7476C7.71008 14.4537 7.18061 13.1433 7.18061 12.4089H8.78264C8.79145 12.5234 8.91 13.2098 10.3847 13.2098C11.4901 13.2098 11.9867 12.7413 11.9867 12.4089C11.9867 12.1486 11.9867 11.6079 10.3847 11.6079Z" fill="#667085"/>
</svg>
